<svg version="1.2" xmlns="http://www.w3.org/2000/svg" viewBox="0 0 1550 381" width="1550" height="381">
	<title>Bank_Muscat_logo-svg</title>
	<style>
		.s0 { fill: #211e1e } 
		.s1 { fill: #ee3f42 } 
	</style>
	<g id="Layer">
		<g id="Layer">
			<g id="a">
			</g>
			<g id="a">
			</g>
			<g id="a">
			</g>
			<g id="a">
			</g>
			<g id="a">
			</g>
			<g id="a">
			</g>
			<g id="a">
			</g>
			<g id="a">
			</g>
			<g id="a">
			</g>
			<g id="a">
			</g>
			<g id="a">
			</g>
			<g id="a">
			</g>
			<g id="a">
			</g>
			<g id="a">
			</g>
			<g id="a">
			</g>
			<g id="a">
			</g>
			<g id="a">
			</g>
			<g id="a">
			</g>
			<g id="a">
			</g>
			<g id="a">
			</g>
			<g id="a">
			</g>
			<g id="a">
			</g>
			<g id="a">
			</g>
			<g id="a">
			</g>
			<g id="a">
			</g>
			<g id="a">
			</g>
			<g id="a">
			</g>
			<g id="a">
			</g>
			<g id="a">
			</g>
			<g id="a">
			</g>
			<g id="a">
			</g>
			<g id="b">
			</g>
			<g id="b">
			</g>
			<g id="b">
			</g>
			<g id="c">
			</g>
			<g id="d">
			</g>
		</g>
		<g id="d">
		</g>
		<g id="d">
		</g>
		<g id="d">
		</g>
		<g id="d">
		</g>
		<path id="Layer" fill-rule="evenodd" class="s0" d="m637.3 359.7v0.2h-25.8l-1.1-10.5h-0.4c-1.3 1.4-2.9 2.9-4.8 4.4-2 1.5-4.1 2.9-6.6 4.2-2.3 1.4-5.2 2.4-8.2 3.3-2.9 0.8-6.1 1.2-9.6 1.2-4.7 0-9.1-0.8-13.2-2.2-4.1-1.4-7.6-3.6-10.5-6.4-2.9-2.8-5.2-6-6.9-10-1.6-3.8-2.5-8.3-2.5-13 0-5.4 1-10.1 2.9-14.3 2-4.2 4.7-7.9 8.1-10.8 3.5-2.9 7.6-5.1 12.5-6.7 4.9-1.5 10.1-2.3 16-2.3 4.3 0 8.2 0.3 11.8 0.8 3.6 0.6 6.8 1.3 9.6 2v-3.9c0-2.4-0.4-4.6-1.2-6.8-0.8-2.1-2.1-4.1-3.8-5.6-1.8-1.7-4-3-6.9-4.1-2.6-0.9-6.1-1.4-10.1-1.4-4.9 0-9.8 0.5-14.7 1.6-4 0.9-8.3 2.1-12.8 3.7-1.7 0.7-3 1.6-4 3.7l-4.3-17.6c0 0 0.7-1.8 5.1-3.8 5.1-2.1 10.3-3.7 15.9-5 5.5-1.2 11.4-1.7 17.5-1.8 7.3 0 13.6 0.8 19 2.7q8.1 2.6 13.5 7.2c3.7 3.2 6.4 6.8 8.3 11 1.7 4.3 2.6 8.7 2.6 13.8v37.2c0 6.5 0.1 12.2 0.3 16.8 0 2.2 0 4.3 0.1 6.3 0.1 1.5 0.9 5.4 4.2 6.1zm-28.7-42c-2.4-0.4-5.1-1-8-1.4-3-0.5-6.1-0.6-9.1-0.6-6 0-10.6 1.1-14.1 3.4-3.4 2.4-5.1 6-5.1 10.8 0 2.3 0.4 4.2 1.2 5.9 0.8 1.7 1.8 3 3.1 4.1 1.3 1.2 2.9 1.9 4.7 2.5 1.7 0.5 3.6 0.7 5.6 0.7 2.4 0 4.8-0.2 6.9-0.9 2.2-0.6 4.3-1.4 6.1-2.5 1.8-0.9 3.4-2 4.9-3.3l3.8-3.5zm-79.2-31.2c2.3 6.4 3.5 13.9 3.5 22.2 0 8.9-1.3 16.8-3.9 23.6-2.5 6.9-6 12.6-10.1 17-4.2 4.4-8.9 7.7-14.1 9.9-5.3 2.2-10.6 3.2-15.8 3.2-3.8 0-7.2-0.5-10.1-1.4q-4.6-1.4-7.9-3.4c-2.3-1.4-4.1-2.8-5.7-4.2q-2.3-2.4-3.7-4.1h-0.3l-2.4 10.5h-20c0.2-2.9 0.3-6.5 0.4-10.9 0.1-4.2 0.2-8.4 0.2-12.3v-121.3c-0.3-2.5-2.1-5.8-5.6-7.3l26.8-3c0 0 2.6 1.6 2.8 7h0.1v41.2c0 2.9 0 5.6-0.1 8.1 0 2.4 0 4.4-0.2 5.8h0.3c1.6-1.1 3.3-2.2 5.1-3.2 1.9-1 3.9-1.9 6.1-2.7q3.2-1.3 7-2c2.5-0.5 5.2-0.7 8-0.7 5.4 0 10.9 1 16 3.1 5.3 1.9 9.8 5 13.9 9 4.1 4.2 7.2 9.5 9.7 15.9zm-21.5 23.4c0-6.2-0.8-11.6-2.2-16-1.6-4.4-3.5-7.8-5.9-10.2-2.4-2.3-4.9-3.9-7.5-4.7-2.7-0.8-5.3-1.2-7.8-1.2-3.6 0-7.2 0.7-10.9 2-3.6 1.6-7 3.5-10 5.8v47.5l3.5 3.3c1.4 1.2 3.1 2.3 4.7 3.2 1.7 1.1 3.7 1.9 5.7 2.5 2.1 0.7 4.2 1 6.5 1q6-0.1 10.4-2.4c2.9-1.6 5.4-3.9 7.5-6.8 1.9-2.9 3.5-6.4 4.5-10.4 1-4.2 1.5-8.6 1.5-13.6zm807.2-13.9c-1.6 4.2-2.4 9.4-2.4 15.3 0 4.4 0.6 8.5 1.8 12.3 1.3 3.9 3 7.2 5.4 9.9 2.4 2.7 5.4 4.9 9 6.6q5.5 2.5 12.9 2.5c4.4 0 8.4-0.4 12.1-1.3 3.5-1 7-2 10.1-3.4v19.7c-3 1.4-6.8 2.4-11.1 3.4q-6.7 1.4-14.1 1.4c-7.1 0-13.8-1-20-3.1-6.2-2-11.6-5.2-16.2-9.3-4.6-4.1-8.2-9.4-10.9-15.7-2.7-6.5-4-13.9-4-22.4 0-9.5 1.5-17.6 4.6-24.4 3.1-6.9 7-12.4 11.9-16.6 4.8-4.3 10.3-7.4 16.5-9.3 6-2.1 12-3.1 17.9-3.1 4.5 0 8.8 0.4 12.8 1.2 4.1 0.7 7.8 1.9 11.1 3.2 3.9 1.5 4.9 3.7 4.9 3.7l-3.9 18.8c-1.1-2.1-2.4-3.1-4.2-3.8-1.9-1.1-4.5-1.8-6.6-2.2h-0.3c-3.2-0.8-6.7-1.1-10.3-1.1-3.9 0-7.6 0.6-11.1 1.8-3.5 1.2-6.7 3.1-9.4 5.7-2.7 2.5-4.9 5.9-6.5 10.2zm233.8 43.7v20.1c-2.8 0.7-6.1 1.4-9.8 1.8-3.7 0.6-7.3 0.8-10.6 0.8-8.3 0-15.1-1.4-20.4-4.1-5.2-2.6-8.9-6.5-11.1-11.6q-2.3-5.4-2.3-14.6v-51.3h-18.5v-20h18.5v-24.2c-0.6-2.8-2-5.8-5.5-7.3l26.7-3.1c0 0 2.7 1.4 2.9 7h0.1v27.6h28.5v20h-28.5v48.1c0 3.8 0.5 6.6 1.7 8.5 2.1 3.1 6.1 4.7 12.1 4.7 2.8 0 5.6-0.2 8.4-0.8 2.7-0.3 5.3-0.9 7.8-1.6zm-366-64.9v46.5c0 8.1-1.4 14.9-4.2 20.4-1.5 3.1-3.6 5.9-6.2 8.5-2.3 2.6-5.3 4.7-8.6 6.5-3.4 1.7-7.2 3.1-11.5 4.1q-6.3 1.6-14.2 1.6c-10 0-18.2-1.7-24.7-5.1-6.6-3.4-11.5-7.9-14.9-13.5-1.7-3.1-3-6.5-3.8-10.2-1-3.7-1.4-7.8-1.4-12.3v-45.9c-0.3-5.5-2.1-9.3-5.2-10.7l22.4-4.3c0 0 7.5 4.9 7.1 14.4v44c0 3.3 0.2 6.2 0.6 8.6 0.5 2.4 1.3 4.5 2.2 6.3 1.6 3 3.9 5.2 7 6.7 3 1.5 6.6 2.2 10.7 2.2 4.4 0 8.1-0.8 11.1-2.5 3.1-1.6 5.5-4.1 7.1-7.4 1.5-3.2 2.3-7.7 2.3-13.4v-41.6c0.1-6.7-1.8-11.4-5.3-13l22.4-4.3c0 0 7.5 4.9 7.1 14.4zm-113.1 15.7c0.1 2.3 0.2 5 0.2 8v61.3h-24.2v-60.2c0-2.1 0-4.1-0.1-5.8-0.2-1.9-0.5-3.5-0.7-4.9-0.8-3.1-2.3-5.4-4.5-7.2-2.1-1.9-5.2-2.9-9.1-2.9-2.1 0-4.3 0.3-6.6 0.9-2.2 0.6-4.5 1.5-6.6 2.6-2.3 1.2-4.3 2.4-6.4 4.1-2.1 1.6-3.9 3.4-5.5 5.3v68.1h-24.1v-60.2c0-2.1-0.2-4.1-0.3-5.8-0.1-1.9-0.4-3.5-0.7-4.9-0.7-3.1-2.1-5.4-4.3-7.2-2.2-1.9-5.2-2.9-9.4-2.9-1.9 0-4.2 0.3-6.4 0.9-2.2 0.6-4.5 1.5-6.7 2.6-2.2 1.2-4.3 2.4-6.3 4.1-2.1 1.6-3.9 3.4-5.4 5.3v61.4c0 1.1 0.5 5.7 4.1 6.5v0.2h-28.4v-81.6c0.2-7.1-1.5-12-4.9-13.7l20.8-4.3c0 0 7.1 4.9 6.6 14.5h0.3c1.3-2.1 3.1-4.1 5.3-6.1 2.2-1.9 4.6-3.6 7.4-5.1 2.8-1.5 5.9-2.7 9.1-3.6 3.2-1 6.8-1.4 10.5-1.4 6.5 0 12.3 1.4 17.6 4.3q7.7 4.3 11.8 13.6h0.4c2-2.8 4.1-5.1 6.4-7.3 2.4-2.2 5-4 7.9-5.6 2.8-1.6 5.9-2.8 9.2-3.7q5-1.3 10.6-1.3c7 0 13 1.5 17.8 4.4 4.7 2.9 8.4 6.9 11.1 11.9l1.8 4.2c0.4 1.5 0.7 3.3 1.1 5.3 0.3 1.8 0.5 3.8 0.6 6.2zm-248.3 16.9l43.8 52.4h-29.4l-38.7-46h-0.3v39.3c0.1 1.3 0.5 5.7 4.2 6.5v0.2h-28.4v-144.6c-0.6-2.8-1.9-5.8-5.4-7.3l26.6-3.1c0 0 3 2 3 7.2v89h0.5l37.6-40.2h30zm449.8 9.4c1.8 3.3 2.7 7.5 2.7 12.6 0 5.6-1.2 10.4-3.2 14.6-2.1 4.2-5 7.6-8.8 10.4-3.8 2.7-8.3 4.8-13.7 6-5.2 1.3-11 2.1-17.3 2.1-6.2 0-11.9-0.6-17-1.6-4.9-1-9-2.1-12.4-3.6v-19.5c5.4 1.9 10.3 3.3 14.8 4 4.4 0.8 8.7 1.1 12.5 1.1 3 0 5.8-0.2 8.4-0.7q3.9-0.6 6.7-2c1.8-1.1 3.4-2.2 4.4-3.8q1.7-2.1 1.7-5.2c0-2.1-0.6-3.7-1.9-5.1-1.1-1.4-2.7-2.5-4.6-3.4-2-0.9-4.3-1.8-6.9-2.5-2.5-0.7-5.2-1.3-8-2-3.6-0.9-6.9-2.1-10.2-3.4-3.3-1.2-6.1-2.8-8.6-4.9-2.4-2-4.5-4.6-5.9-7.7-1.5-3.1-2.2-6.9-2.2-11.4 0-5.5 1-10.2 2.9-14.3 2.1-4 4.6-7.4 8-10.1 3.4-2.6 7.3-4.6 11.8-5.9 4.5-1.3 9.2-1.9 14.2-1.9 6 0 11.6 0.5 17 1.5q2.8 0.5 5.3 1.1h0.1l0.5 0.2h0.2c5.2 1.3 6.4 4 6.4 4l-3.9 17.9-0.8-1.3-0.2-0.3-1.5-1.3c-2-1.2-4.8-1.9-7.9-2.2-2.2-0.3-4.3-0.4-6.2-0.6-9.5-0.6-14.7 1.3-16.7 2.2l-2.4 1.3-2.6 3.3-0.9 3.6c0 2.3 0.6 4.2 1.8 5.6 1.2 1.4 2.9 2.5 5 3.4 2.1 0.9 4.3 1.6 6.6 2.2 2.3 0.6 4.6 1.2 6.8 1.7 3.4 0.8 6.8 1.8 10.2 3 3.4 1.1 6.4 2.7 9.1 4.7 2.8 2.2 4.9 4.9 6.7 8.2zm-524.5-29.7c0.3 2.5 0.4 5.4 0.4 8.7v64.1h-24.2v-60.4c0-2.7-0.1-4.9-0.3-6.9-0.2-1.8-0.6-3.5-1.2-5-1.1-3.1-3-5.3-5.5-6.7-2.6-1.3-5.5-2-9-2-4.8 0-9.2 1-13.6 3.3-4.3 2.2-8.1 5.4-11.4 9.6v61.8c0 1.5 0.8 5.4 4.1 6.1v0.2h-28.3v-84.8c-0.4-5.3-2.1-9.2-4.9-10.5l20.8-4.3c0 0 7 4.9 6.6 14.5h0.1c1.4-2.1 3.2-4.1 5.4-6.1 2.2-1.9 4.7-3.6 7.4-5.1 2.8-1.5 5.9-2.7 9.4-3.6 3.3-1 6.9-1.4 10.7-1.4q5.4 0 10.4 1.2c3.4 0.8 6.4 2.1 9.3 3.8 2.8 1.8 5.3 4 7.4 6.8 2.1 2.7 3.8 6 5 9.8 0.7 2.2 1.2 4.5 1.4 6.9zm723.4 72.2v0.1h-25.7l-1.1-10.5h-0.4c-1.4 1.4-3 2.9-5 4.5-1.8 1.4-4 2.9-6.5 4.2-2.4 1.3-5.1 2.3-8.2 3.1-2.9 0.9-6.1 1.3-9.6 1.3-4.7 0-9.1-0.7-13.2-2.1-4-1.6-7.6-3.6-10.5-6.4-2.9-2.8-5.2-6-6.9-10.1-1.6-3.9-2.5-8.2-2.5-13 0-5.3 0.9-10.1 2.9-14.3 2-4.3 4.7-7.8 8.2-10.8 3.4-2.9 7.6-5.1 12.3-6.6 5-1.5 10.3-2.3 16.1-2.3 4.3 0 8.2 0.3 11.9 0.8 3.6 0.5 6.7 1.2 9.4 2v-4c0-2.4-0.3-4.6-1.1-6.7-0.8-2.1-2.1-4.1-3.8-5.8-1.7-1.6-4-3-6.8-3.9-2.8-1-6.2-1.5-10.2-1.5-4.9 0-9.8 0.5-14.7 1.7-4 0.8-8.2 2.1-12.8 3.7-1.6 0.7-3 1.6-3.9 3.7l-4.3-17.7c0 0 0.6-1.8 5-3.7 5-2.2 10.4-3.9 15.9-5.1 5.6-1.1 11.5-1.7 17.6-1.8q10.9 0 18.9 2.7c5.4 1.8 9.8 4.2 13.5 7.3 3.8 3 6.5 6.7 8.2 10.9 1.8 4.3 2.7 8.8 2.7 13.8v37.2q0.1 9.8 0.3 16.8c0 2.3 0.1 4.3 0.1 6.3 0.1 1.5 0.8 5.3 4.2 6.2zm-28.8-42c-2.2-0.6-4.9-1.1-7.9-1.6-3-0.3-6-0.6-9.1-0.6-5.9 0-10.6 1.2-14 3.6-3.4 2.3-5.1 6-5.1 10.7 0 2.2 0.3 4.3 1.1 6 0.7 1.5 1.8 2.9 3.1 4 1.4 1.1 2.9 1.9 4.8 2.5 1.7 0.5 3.5 0.8 5.5 0.8 2.5 0 4.7-0.3 6.9-1 2.2-0.6 4.3-1.5 6.1-2.4 1.8-1 3.5-2.1 5-3.3l3.6-3.6z"/>
		<path id="Layer" fill-rule="evenodd" class="s0" d="m702.5 20.4c0-6.8 5.8-12.4 12.6-12.4 6.7 0 12.6 5.6 12.6 12.4 0 6.8-5.8 12.6-12.6 12.6-6.8 0-12.6-5.8-12.6-12.6zm-32.3 0c0-6.8 5.7-12.4 12.6-12.4 7 0 12.7 5.6 12.7 12.4 0 6.8-5.7 12.6-12.7 12.6-6.9 0-12.6-5.8-12.6-12.6zm436.1 115.4c-7.4 10-18.8 15.1-33.6 15.1h-0.2c-12.1 0-22-3.7-29.5-10.7-7.2 7.1-17.8 10.7-31.4 10.7h-575.3v-0.1c-4.7-0.7-6.4-3-6.7-3.4l-0.1-0.4 2.7-27.1 1.4 3.1 0.9 2.1c1.2 2.7 3.8 4.2 5.5 4.4h17.6l0.4-106.9c-0.2-1.9-1.6-4.5-4.4-5.7l-5.1-2.2 28.9-3.4 0.2 0.3 0.2 0.1c0.4 0.2 2.6 1.8 3.3 6.5h0.3v65.4c13.8-20.2 32.5-31.8 56.3-32.4l1.5-0.1h0.1c20.7 0 36.6 11.6 46.9 28.3 6.3 10.5 9.6 24.3 9.6 43.7 0 2.2-0.1 4.5-0.1 6.9h66.7c-5.8-9.5-7.4-22-7.7-31.8v-2.5-0.1c-0.1-12.2 2.9-20.3 8.6-28.4 7.8-10.7 19.5-16.1 34.5-16.1h0.2c15.2 0 26.9 5.4 34.4 16.1 5.6 7.8 8.9 15.6 8.9 27.7l-0.1 3.8c-0.6 10-2.8 22.1-8.1 31.2h68.2c1.4-0.1 2.2-0.4 4.1-2l1.6-2.8 0.2-0.6v-22.2c-0.3-1.9-1.7-4.6-4.5-5.8l-5.1-2.2 28.9-3.3 0.2 0.2 0.1 0.1c0.5 0.2 3.2 2.1 3.6 7.7v30.9h33.6c1.3-0.1 2.1-0.4 4.1-2l1.6-2.8 0.2-0.9v-10.7h-0.1v-20.7c-0.1-1.9-1.6-4.5-4.3-5.6l-5.1-2.3 28.8-3.3 0.2 0.2 0.1 0.1c0.6 0.2 3.4 2.1 3.7 7.8v40.3h34.1c1.3-0.2 2-0.5 4-2.1l1.6-2.9 0.1-0.4v-40.9c-0.2-1.9-1.6-4.6-4.3-5.7l-5.2-2.2 28.9-3.3 0.2 0.1 0.2 0.1c0.4 0.3 3.1 2.3 3.5 7.7l0.1 1-0.1 41.7v-0.1 6.9h54.8c12.3 0 18.5-10.3 18.6-23.9v-6.8c0-13.4 3.1-24.1 9.1-32.5 7.3-10 18.9-14.9 33.8-14.9h0.2c14.4 0 25.7 4.7 33.1 14.2l0.5 0.7 0.1 0.1 0.3 0.5v0.1c5.7 8.3 8.6 18.8 8.6 31.7-0.1 13.1-3.1 28.3-9.1 36.7zm-541.2-47.6c-6-8.4-14.7-14.5-25.9-15.2h-1.5c-12.9 0-25.6 9.5-37.7 23.3-9.5 11.2-16.2 20.7-19.6 33.2h92.1c0.4-2.6 0.9-4.5 0.9-7.1 0-13.3-2.7-24.6-8.3-34.2zm153.9 12.6c0-16.2-9.4-29.3-21-29.3-11.7 0-21.1 13.1-21.1 29.3 0 16.2 9.4 29.2 21.1 29.2 11.6 0 21-13 21-29.2zm373.1 0.6c0-16.2-8.7-29.3-19.5-29.3-10.8 0-19.6 13.1-19.6 29.3 0 16.1 8.8 29.2 19.6 29.2 10.8 0 19.5-13.1 19.5-29.2z"/>
		<path id="Layer" fill-rule="evenodd" class="s0" d="m1524.1 166.7c7 0 12.9 5.6 12.9 12.7 0 7-5.9 12.8-12.9 12.8-6.9 0-12.7-5.8-12.7-12.8 0-7.1 5.9-12.7 12.7-12.7zm-202.9-29.1c-7.4 9.2-18.9 13.7-33.5 13.7h-80.8c-23.8 0-40.5-15.6-40.5-38.6v-24.3-4.2c-0.1-1.7-1.5-4.2-4.2-5.3l-6.2-2.8 30.1-3.5 0.3 0.3 0.2 0.1c0.5 0.3 3 2 3.6 6.5h0.1v0.8l0.1 1h-0.1v0.7 0.3 1.8 26.9c0.3 13.2 5.9 18.8 19.4 19l76.7 0.2c13.7-0.4 19.3-6 19.6-19.2v-98.6c-0.1-1.8-1.5-4.3-4.2-5.5l-6.2-2.6 30.2-3.4 0.2 0.1 0.2 0.1c0.5 0.3 2.9 2 3.6 6.6h0.1v0.8l0.1 0.9h-0.1v95.3c0.3 17.5 7.6 25.2 24.4 25.4l46.4 0.1c13.7-0.4 19.3-6.1 19.6-20v-1.1-24.9c-0.1-1.7-1.5-4.2-4.2-5.3l-6.3-2.7 30.3-3.5 0.3 0.2 0.2 0.1c0.3 0.3 2.6 1.8 3.5 6l0.1-0.1v1.1l0.1 0.8h-0.1v29.9c0.3 13.5 5.9 19.1 19.4 19.4l43 0.1c13.4-0.4 19-6.1 19.3-20v-47.5c-0.1-1.8-1.5-4.3-4.2-5.4l-6.2-2.6 30.1-3.5 0.3 0.1 0.2 0.3c0.5 0.1 3.1 2 3.7 7.3h-0.9 0.9v4.1 48.8c0 11.3-3.8 21-11.4 28.4-7.6 7.4-18 11.1-30.6 11.1h-45.6c-12.2 0-22.1-3.6-29.6-10.6-7.5 7-17.5 10.6-30 10.6h-50.1c-13.7 0-24.3-4.5-31.3-13.7zm-109-47.9v-0.3l0.1-0.3 0.1-0.2c0.3-0.5 1.7-2.2 5.4-2.4h14.7v-2.2c0-15.3 10-28 26.5-28 6.6 0 13.1 3.1 18.5 8.8l0.3 0.4 2.2 0.8 0.8-0.2 6.8-1.7-15.2 14.7h-0.9c-0.9 0-2.4-0.3-4.2-1.9l-0.9-1v-0.1l-0.6-0.7c-2.7-3-5.2-4.3-8.2-4.3-6.8 0.3-9.3 3.1-9.6 11.6v3.8h31.9v14.9h-60.4l-2.5 1.9-2.6 6.2zm219.5-33.4c-7 0-12.9-5.9-12.9-13 0-6.9 6-12.7 12.9-12.7 7 0.1 12.9 5.8 12.9 12.7 0 7.1-5.9 13-12.9 13z"/>
		<path id="Layer" class="s1" d="m128 83.6q10.3 3.4 19.7 8.2l3.7 1.9c9.4 5.1 18.1 11 26.1 17.5 8 6.4 15.3 13.5 21.9 20.9 4.7 5.2 9.1 10.6 13.2 16.2 4.4 5.9 8.5 12.1 12.3 18.2 13.3 21.8 22.5 43.7 28.5 60.9 3.6 10.4 6 19.2 7.6 25.1 1.3 5.3 1.9 8.4 1.9 8.4v-0.1l0.3-1.1c0.2-0.9 0.4-2.3 0.8-4.2q0.6-3.1 1.4-7.6l0.5-4.1q0.7-4.1 1.2-9.1 0.4-3.3 0.7-6.9 0.3-3 0.5-6.3c0.2-1.6 0.3-3.3 0.4-5 0.3-6.4 0.6-13.4 0.6-20.7v-2.5c-0.1-9.2-0.5-19.2-1.4-29.6-1.5-17.1-4.5-35.6-9.6-54.8-1.4-5.3-3-10.7-4.8-16.1-1.7-5.1-3.5-10.1-5.4-15.1-2.8-7.1-5.9-14.2-9.4-21.4-3.5-7.1-7.4-14.3-11.6-21.3l-1.8-2.8c-2.8-4.5-5.8-9-9.1-13.6l-3.2-4.4-3.6-4.7q-3 2.1-6 4.3c-2.7 2-5.3 3.9-8.1 5.9-3.2 2.3-6.4 4.7-9.6 7q-7.3 5.3-14.6 10.6-3.8 2.8-7.6 5.6c-6.1 4.4-12.1 8.8-18.3 13.2-5.7 4.3-11.4 8.4-17.2 12.6-3.3 2.4-6.6 4.8-10 7.2l-4.6 3.4c2.6 0.7 5.2 1.4 7.7 2.1q3.5 1 6.9 2.2zm39 102c7.2-8.4 13.6-14.9 17.9-19.1 3.9-3.8 6.2-5.8 6.3-5.9h-0.1l-1 0.3q-1.4 0.5-4.1 1.4c-2 0.7-4.4 1.6-7.3 2.7l-3.8 1.5c-2.6 1.1-5.4 2.2-8.5 3.5-2 0.9-4.1 1.8-6.3 2.9-1.8 0.8-3.8 1.7-5.7 2.7l-4.5 2.2c-6.3 3.2-13.2 6.9-20.4 11-8 4.7-16.4 10-25 16.1-14.1 9.9-28.6 21.7-42.6 35.6-4 4-7.8 8-11.6 12.4q-5.3 5.8-10.4 12.1c-4.7 6-9.4 12.3-13.8 18.8-4.4 6.6-8.6 13.5-12.6 20.8l-1.5 2.8q-3.9 7.2-7.3 14.7c-0.7 1.7-1.5 3.4-2.2 5-0.8 1.8-1.6 3.7-2.4 5.5 2.3 1.1 4.6 2 6.8 3.1 3.1 1.3 6.1 2.7 9.2 4 3.6 1.6 7.2 3.2 10.9 4.8 5.4 2.5 10.9 4.9 16.4 7.3 2.9 1.3 5.8 2.6 8.7 3.8q10.3 4.6 20.6 9.2c6.5 2.9 13 5.8 19.5 8.7 3.8 1.7 7.5 3.3 11.3 5 1.7 0.8 3.5 1.5 5.2 2.3q-1.1-3.8-2.1-7.7c-0.6-2.3-1.1-4.7-1.6-7-1.3-7.2-2.2-14.2-2.6-21.2l-0.2-4.2c-0.3-10.7 0.4-21.2 2.1-31.3 1.5-10.2 4-20 7.1-29.4 2.2-6.7 4.7-13.3 7.4-19.5q4.5-10.3 9.7-19.7c12.2-22.5 26.6-41.4 38.5-55.2zm203.9 165.5c-0.4-3.3-0.7-6.6-1.1-9.9-0.4-4-0.8-7.9-1.2-11.9-0.7-6-1.3-11.9-2-17.9-0.3-3.1-0.6-6.3-1-9.4q-1.2-11.2-2.3-22.5c-0.8-7-1.5-14.1-2.3-21.1-0.4-4.2-0.9-8.3-1.3-12.3-0.2-1.9-0.4-3.8-0.6-5.7-1.9 1.9-3.7 3.8-5.6 5.6-1.8 1.7-3.5 3.3-5.4 4.9-5.4 4.8-11.1 9.1-16.9 12.9l-3.6 2.3c-9.1 5.6-18.5 10.2-28.2 13.9-9.5 3.7-19.2 6.4-29 8.5-6.9 1.5-13.8 2.5-20.6 3.3-7.4 0.8-14.7 1.3-21.9 1.5-25.6 0.7-49.1-2.3-67-5.8-10.9-2-19.7-4.3-25.6-5.9-5-1.4-7.9-2.4-8.2-2.5h0.1l0.7 0.8 3.3 2.8c1.6 1.4 3.6 3.1 5.9 5l3.2 2.5c2.2 1.7 4.7 3.5 7.3 5.6 1.8 1.3 3.7 2.6 5.7 4.1 1.7 1.1 3.4 2.3 5.2 3.5l4.1 2.8c6 3.9 12.6 8 19.8 12.1 8 4.6 16.8 9.3 26.4 13.6 15.6 7.3 33.1 14 52.2 19.1 5.4 1.5 10.9 2.8 16.4 3.9 5.2 1.2 10.4 2.1 15.8 2.9 7.5 1.2 15.3 2 23.2 2.6 6 0.4 12.1 0.6 18.3 0.6h0.8c1.7 0 3.4 0 5.2-0.1h3.2c5.4-0.3 10.8-0.6 16.3-1.2 1.9-0.1 3.7-0.3 5.5-0.6 2-0.2 3.9-0.4 5.9-0.7q-0.3-3.7-0.7-7.3z"/>
	</g>
</svg>