<svg xmlns="http://www.w3.org/2000/svg" viewBox="0 0 224.67 72.19"><defs><style>.cls-1{fill:#ac4a23;}</style></defs><g id="Layer_2" data-name="Layer 2"><g id="Layer_1-2" data-name="Layer 1"><path class="cls-1" d="M223.36,38.66c-3.9-10.15-13.57-11.59-22.18-14.57-2.82-1-5.85-1.43-6.39-5.13,1.51-5,5.49-4.81,9.43-4.31,2.67.34,5.25,1.33,7.92,1.75,3.31.52,5.93-.51,7.14-4a6.29,6.29,0,0,0-2.69-7.85,26.63,26.63,0,0,0-25.05-1.7C184.61,6.2,180.15,11,179.88,19s2.4,12.72,9.76,15.71c4.6,1.87,9.5,3,14.09,4.9,5.05,2.08,6,6,2.41,9.26-3.31,1.85-7.78,1.46-11.71.3-2.32-.68-4.59-1.54-6.94-2.13-3.61-.91-6.56.12-8.13,3.66s-.81,6.58,2.44,8.58c7.83,4.81,16.19,6.42,25.32,4.21,7.82-1.89,15.48-5.89,17.2-15.35A16.21,16.21,0,0,0,223.36,38.66Z"/><path class="cls-1" d="M54.73,19.82c.06-3.23.28-7.14.28-10.37C55,4.29,52.43,0,47.27,0c-6,0-6.87,4.29-6.87,7.73,0,2.81.18,9.26.17,12.08.62,4.15-.94,5.66-5.3,5.27a95.06,95.06,0,0,0-15.28,0c-4.16.31-6.48-.66-6-5.25.11-5.86.61-10.37-.25-15.53C13.63,3.53,12,0,6.88,0,3.44,0,0,1.71,0,6c0,5.57.06,8.21.06,13.78V61c1.66,2.64,4.74,7.92,7.68,11.24C8,72.19,14.61,61,14.61,61V47.26c-.3-8.53,0-9.45,3.59-9.32,6.13.21,12.28.2,18.41,0,2.89-.1,4.12.58,3.89,3.71a81.43,81.43,0,0,0,.28,9,58.71,58.71,0,0,0-.13,6.76,7.11,7.11,0,0,0,14.21,0,63.81,63.81,0,0,0-.11-6.77Q54.74,35.21,54.73,19.82Zm-46.64-9c0-.91.19-1.8,1.35-1.67,1,.11.82,1,.83,1.69.07,3,.12,6,.17,9l0,27.43c-.45.8.38,2.31-1,2.48-1.84.22-1-1.63-1.51-2.44.33-9.17.35-18.33,0-27.5Zm-5,35.55q0-13.28,0-26.55c0-2.95.08-5.91.16-8.87,0-.66,0-1.51,1-1.52s.92.87.93,1.51c.08,3,.12,5.91.18,8.87l0,27.43c-.46.76.39,2.5-1.08,2.31C2.43,49.31,3.63,47.38,3.05,46.36Zm7.27,19H5.16C3.44,62.73,3.44,61.87,3.44,61H12A9.09,9.09,0,0,1,10.32,65.31Z"/><path class="cls-1" d="M163,19C159.86,3.43,156.42.85,152.12.85c-3.43,0-6-.85-12.8,18.11h0c-2.63,5.69-3.19,12.27-7.08,18.31a115.31,115.31,0,0,0-5-19.23c-2.06-6.33-4.3-17.19-12-17.19-8.6-.85-10.32,10.32-12,18.1-2.32,10.47-4.31,21-5.59,31.63-2.21,11.29,1.14,13.1,4.22,13.68,3.88.74,7.32-2.39,9.88-13.63,1.78-7.09,2.33-14.39,3.46-21.71,3.89,6.87,5.21,14.54,8,21.68.81,2.72,1.45,5.51,2.47,8.16,1.31,3.38,3.46,5.74,7.6,5.69,4-.06,6-2.42,7.18-5.63,1-2.64,1.55-5.44,2.31-8.17,2.31-7,4.61-14.09,7.19-21.94,1.37,7.38,2.23,12.54,4.52,22,2,13.71,6.27,14.41,9.81,13.48,3.28-.86,5.09-4.06,4.19-13.59C167.33,40,164.62,29.55,163,19Z"/><path class="cls-1" d="M83.14,19.81c0-3.23,0-6.48.18-9.71.25-4.2-2.65-8-5.1-9.17C76.67.05,68.67.05,69.06,8c.2,3.95.25,36.53.61,47.07.42,11.62,13,8,13.53,2.76C83.41,55.72,83.05,29.43,83.14,19.81Z"/><polygon class="cls-1" points="7.65 69.53 5.84 66.39 9.46 66.39 7.65 69.53"/></g></g></svg>